<?xml version="1.0" standalone="no"?>
<!DOCTYPE svg PUBLIC "-//W3C//DTD SVG 20010904//EN"
 "http://www.w3.org/TR/2001/REC-SVG-20010904/DTD/svg10.dtd">
<svg version="1.0" xmlns="http://www.w3.org/2000/svg"
 width="128.000000pt" height="128.000000pt" viewBox="0 0 128.000000 128.000000"
 preserveAspectRatio="xMidYMid meet">
<metadata>
Created by potrace 1.14, written by Peter Selinger 2001-2017
</metadata>
<g transform="translate(0.000000,128.000000) scale(0.100000,-0.100000)"
fill="#000000" stroke="none">
<path d="M0 640 l0 -640 640 0 640 0 0 640 0 640 -640 0 -640 0 0 -640z m810
561 l125 -8 -98 -2 c-89 -1 -98 -3 -93 -18 3 -10 8 -31 12 -46 4 -18 11 -26
20 -23 8 3 15 -7 20 -27 6 -30 7 -31 15 -9 5 12 16 22 25 22 13 0 15 -6 10
-32 -4 -18 -10 -49 -12 -68 -8 -51 10 -18 26 48 9 41 16 52 32 52 14 0 18 -5
14 -17 -2 -10 -11 -43 -20 -74 -15 -53 -18 -57 -53 -62 -39 -7 -56 5 -48 33 8
29 15 75 9 63 -5 -13 -54 -19 -54 -7 0 3 5 15 11 27 7 15 2 12 -14 -8 -19 -23
-22 -31 -11 -33 18 -4 18 -4 -3 -47 -19 -40 -32 -45 -41 -13 l-5 22 -8 -21
c-7 -20 -15 -21 -93 -20 -102 3 -113 10 -92 61 12 28 21 36 40 36 18 0 26 5
25 18 0 10 -3 12 -6 5 -7 -18 -43 -16 -43 1 0 19 27 46 46 46 8 0 14 9 14 20
0 12 9 31 20 43 19 20 20 22 3 28 -15 6 -14 8 7 12 45 11 65 13 80 9 9 -2 72
-7 140 -11z m-287 -70 c-3 -14 -15 -21 -37 -23 -23 -2 -32 -8 -34 -25 -3 -18
2 -23 17 -23 31 0 26 -28 -6 -32 -23 -2 -29 -10 -36 -41 -5 -21 -16 -41 -24
-44 -28 -11 -28 -6 18 170 10 36 11 37 58 37 44 0 49 -2 44 -19z m462 -23 c0
-18 -5 -37 -11 -43 -16 -14 -36 -99 -24 -103 18 -6 -1 -22 -26 -22 -26 0 -26
-1 -4 88 5 19 6 40 3 48 -3 8 0 14 6 14 6 0 11 6 11 13 0 16 20 37 35 37 5 0
10 -15 10 -32z m-618 -30 c-3 -8 -6 -5 -6 6 -1 11 2 17 5 13 3 -3 4 -12 1 -19z
m-10 -40 c-3 -8 -6 -5 -6 6 -1 11 2 17 5 13 3 -3 4 -12 1 -19z m423 -49 c0
-20 -21 -49 -36 -49 -13 0 -13 4 1 30 15 29 35 40 35 19z m-353 -106 c-20 -2
-52 -2 -70 0 -17 2 0 4 38 4 39 0 53 -2 32 -4z m136 0 c-18 -2 -48 -2 -65 0
-18 2 -4 4 32 4 36 0 50 -2 33 -4z m115 0 c-10 -2 -26 -2 -35 0 -10 3 -2 5 17
5 19 0 27 -2 18 -5z m72 -151 c0 -24 -1 -24 -13 -8 -14 19 -62 19 -62 1 -1 -5
-7 -21 -14 -35 -14 -24 -13 -24 4 -10 17 14 17 14 7 -6 -10 -19 -55 -38 -65
-27 -2 2 3 28 11 59 l15 55 59 -2 c55 -2 58 -3 58 -27z m-110 -122 c24 -24 25
-38 3 -62 -26 -29 -33 -22 -33 32 0 28 2 50 5 50 3 0 14 -9 25 -20z m337 -37
c-3 -10 -5 -4 -5 12 0 17 2 24 5 18 2 -7 2 -21 0 -30z m-95 -14 c-6 -42 -22
-46 -22 -5 0 26 4 36 13 33 6 -2 10 -15 9 -28z m-384 -121 c0 -57 -3 -88 -5
-70 -2 17 -8 32 -14 32 -5 0 -9 6 -9 13 0 15 -37 40 -42 28 -2 -4 -15 -11 -30
-15 l-28 -6 0 57 0 56 23 -20 c12 -11 28 -18 35 -16 7 3 12 -3 12 -14 0 -15 2
-16 10 -3 8 12 10 9 10 -13 0 -48 25 -25 28 26 6 84 12 49 10 -55z m242 42 c0
-28 -4 -40 -14 -40 -14 0 -25 -18 -32 -57 -5 -24 19 -33 32 -12 12 20 21 -6
17 -48 -4 -33 -10 -42 -28 -47 -13 -3 -29 -4 -37 -3 -7 2 -10 2 -5 0 4 -3 7
-9 7 -14 0 -6 -4 -7 -10 -4 -5 3 -19 1 -31 -5 -36 -20 -32 -3 11 37 36 35 39
41 25 53 -8 7 -15 9 -15 4 0 -5 -11 -9 -25 -9 -24 0 -25 3 -25 55 0 91 4 97
66 105 30 3 54 11 54 16 0 5 2 9 5 9 3 0 5 -18 5 -40z m237 -272 c-2 -13 -4
-3 -4 22 0 25 2 35 4 23 2 -13 2 -33 0 -45z"/>
<path d="M525 990 c-4 -12 -5 -24 -2 -27 3 -2 8 5 12 17 4 12 5 24 2 27 -3 2
-8 -5 -12 -17z"/>
</g>
</svg>
